# xmcd CD database file
#
# Track frame offsets:
#	150
#	17175
#	31895
#	51232
#	69895
#
# Disc length: 1187 seconds
#
# Revision: 0
# Processed by: cddbd v1.5.1PL0 Copyright (c) Steve Scherf et al.
# Submitted via: CDex 1.51
#
DISCID=3804a105
DTITLE=間　寛平 - ジャングル野郎
DYEAR=2001
DGENRE=JPop
TTITLE0=ジャングル・ジム
TTITLE1=天国野郎
TTITLE2=やどもり
TTITLE3=月光バスボーイ
TTITLE4=コスモス
EXTD=YEAR: 20010718
EXTT0=
EXTT1=
EXTT2=
EXTT3=
EXTT4=
PLAYORDER=
